<svg>
<g xmlns="http://www.w3.org/2000/svg" clip-path="url(#clip7)" clip-rule="nonzero">
<path style=" stroke:none;fill-rule:nonzero;fill:rgb(13.729858%,12.159729%,12.548828%);fill-opacity:1;" d="M 178.152344 379.085938 L 176.789062 378.660156 L 176.625 378.257812 L 175.433594 377.636719 L 173.949219 377.738281 L 172.425781 378.148438 L 170.964844 378.542969 L 170.230469 378.496094 L 168.269531 379.632812 L 169.867188 378.46875 L 169.433594 378.441406 L 166.609375 380.476562 L 164.328125 383.757812 L 162.757812 386.316406 L 163.273438 386.027344 L 163.898438 385.019531 L 163.714844 385.777344 L 164.371094 385.398438 L 163.648438 386.195312 L 165.09375 385.433594 L 166.886719 384.402344 C 166.886719 384.402344 168.542969 384.339844 169.082031 384.371094 C 168.964844 384.820312 169.136719 385.449219 169.28125 385.785156 C 169.289062 385.878906 169.304688 385.96875 169.347656 386.058594 C 169.363281 386.089844 169.371094 386.109375 169.375 386.121094 C 169.382812 386.121094 169.402344 386.128906 169.445312 386.15625 C 169.617188 386.273438 169.722656 386.3125 169.917969 386.375 C 170.125 386.445312 170.285156 386.558594 170.5 386.648438 C 170.234375 386.136719 169.796875 386.375 169.53125 385.878906 L 169.828125 386.003906 C 170.324219 386.320312 170.558594 386.148438 171.128906 386.265625 C 170.953125 385.898438 170.671875 386.191406 170.324219 386.046875 C 170.0625 385.941406 169.804688 385.796875 169.59375 385.617188 C 169.496094 385.53125 169.445312 385.460938 169.421875 385.390625 C 169.417969 385.296875 169.421875 385.199219 169.429688 385.105469 C 169.445312 385.027344 169.46875 384.9375 169.484375 384.828125 C 169.496094 384.753906 169.511719 384.671875 169.519531 384.582031 C 169.539062 384.523438 169.585938 384.398438 169.585938 384.398438 L 170.082031 384.382812 C 170.082031 384.382812 170.71875 384.144531 171.027344 384.035156 C 171.464844 384.171875 171.789062 384.199219 172.144531 384.609375 C 172.402344 384.90625 172.550781 385.335938 172.648438 385.597656 C 172.722656 385.34375 172.625 384.832031 172.484375 384.515625 C 172.511719 384.519531 172.539062 384.527344 172.566406 384.539062 C 172.722656 384.597656 172.828125 384.671875 172.933594 384.804688 C 173.0625 384.964844 173.152344 385.222656 173.351562 385.308594 C 173.207031 384.886719 172.941406 384.617188 172.582031 384.433594 C 172.71875 384.46875 172.859375 384.496094 173.003906 384.542969 C 173.308594 384.636719 173.519531 384.992188 173.851562 384.964844 C 173.644531 384.46875 172.835938 384.226562 172.105469 384.097656 C 172.027344 383.992188 171.863281 383.867188 171.671875 383.761719 C 171.707031 383.746094 171.777344 383.710938 171.777344 383.710938 L 172.265625 383.277344 L 172.894531 382.203125 L 174.898438 380.484375 L 176.640625 379.617188 L 178.625 379.609375 L 178.152344 379.085938 "/>
</g>
</svg>